<?xml version="1.0" standalone="no"?>
<!DOCTYPE svg PUBLIC "-//W3C//DTD SVG 20010904//EN"
 "http://www.w3.org/TR/2001/REC-SVG-20010904/DTD/svg10.dtd">
<svg version="1.0" xmlns="http://www.w3.org/2000/svg"
 width="160.000000pt" height="160.000000pt" viewBox="0 0 160.000000 160.000000"
 preserveAspectRatio="xMidYMid meet">
<metadata>
Created by potrace 1.11, written by Peter Selinger 2001-2013
</metadata>
<g transform="translate(0.000000,160.000000) scale(0.100000,-0.100000)"
fill="#000000" stroke="none">
<path d="M515 1480 c-154 -32 -293 -63 -310 -70 -16 -7 -41 -13 -55 -14 -24
-1 -25 -4 -28 -79 l-3 -78 76 -78 c55 -57 75 -84 75 -104 0 -22 -5 -27 -24
-27 -12 0 -38 -5 -55 -11 -24 -9 -35 -9 -44 0 -18 18 -26 13 -36 -26 -24 -84
-17 -106 93 -312 298 -560 307 -574 339 -542 5 5 22 8 36 5 22 -4 382 53 714
113 90 16 110 30 87 58 -16 19 -30 19 -30 1 0 -8 -12 -17 -27 -20 -31 -7 -741
-116 -751 -116 -4 0 0 5 8 10 11 7 11 10 2 10 -7 0 -11 4 -8 9 3 5 74 19 157
32 84 13 147 25 141 27 -6 2 -70 -6 -142 -17 -72 -12 -138 -21 -148 -20 -47 1
43 19 268 53 135 20 255 38 268 40 12 2 22 0 22 -4 0 -4 -57 -15 -127 -25 -69
-11 -121 -21 -115 -23 17 -5 435 58 445 68 5 4 -11 4 -35 0 -23 -4 -63 -10
-88 -14 -73 -10 -24 10 60 25 64 11 71 14 45 20 -29 6 -29 7 -4 8 23 1 27 7
33 41 4 25 14 43 27 50 11 6 19 15 17 20 -2 5 -29 36 -60 68 -58 60 -70 79
-45 69 8 -3 19 -2 26 2 8 5 -2 37 -34 110 -24 57 -46 110 -47 118 -2 12 25 24
116 49 65 18 120 35 123 38 8 8 -11 28 -47 50 l-32 18 11 -21 c10 -18 8 -22
-11 -31 -43 -18 -680 -181 -697 -178 -18 4 -23 36 -8 56 5 6 6 12 2 12 -4 0
-2 6 4 13 6 8 8 16 5 20 -8 8 86 35 400 112 l279 69 15 38 c10 26 24 40 45 48
27 9 29 12 16 24 -28 27 -638 367 -655 365 -5 0 -135 -27 -289 -59z m563 -917
c-87 -2 -229 -2 -315 0 -87 1 -16 3 157 3 173 0 244 -2 158 -3z m179 -66 l-3
-32 -75 -3 c-41 -2 -229 0 -419 5 -311 7 -330 9 -190 13 l155 6 -170 2 c-93 1
-165 6 -159 10 6 4 13 14 16 23 9 24 46 27 452 28 204 1 372 4 375 7 10 10 22
-27 18 -59z m26 -134 c-7 -2 -19 -2 -25 0 -7 3 -2 5 12 5 14 0 19 -2 13 -5z
m-270 -40 c-7 -2 -21 -2 -30 0 -10 3 -4 5 12 5 17 0 24 -2 18 -5z m-213 -33
c-149 -26 -232 -35 -205 -24 18 8 310 52 340 52 17 0 -44 -13 -135 -28z"/>
<path d="M748 503 c90 -2 234 -2 320 0 86 1 13 3 -163 3 -176 0 -247 -2 -157
-3z"/>
<path d="M1038 473 c39 -2 105 -2 145 0 39 1 7 3 -73 3 -80 0 -112 -2 -72 -3z"/>
<path d="M1273 303 c9 -2 23 -2 30 0 6 3 -1 5 -18 5 -16 0 -22 -2 -12 -5z"/>
<path d="M1203 293 c9 -2 23 -2 30 0 6 3 -1 5 -18 5 -16 0 -22 -2 -12 -5z"/>
<path d="M1143 283 c9 -2 23 -2 30 0 6 3 -1 5 -18 5 -16 0 -22 -2 -12 -5z"/>
<path d="M1073 273 c9 -2 23 -2 30 0 6 3 -1 5 -18 5 -16 0 -22 -2 -12 -5z"/>
<path d="M1008 263 c6 -2 18 -2 25 0 6 3 1 5 -13 5 -14 0 -19 -2 -12 -5z"/>
<path d="M943 253 c9 -2 23 -2 30 0 6 3 -1 5 -18 5 -16 0 -22 -2 -12 -5z"/>
<path d="M873 243 c9 -2 23 -2 30 0 6 3 -1 5 -18 5 -16 0 -22 -2 -12 -5z"/>
<path d="M813 233 c9 -2 23 -2 30 0 6 3 -1 5 -18 5 -16 0 -22 -2 -12 -5z"/>
<path d="M743 223 c9 -2 23 -2 30 0 6 3 -1 5 -18 5 -16 0 -22 -2 -12 -5z"/>
<path d="M683 213 c9 -2 23 -2 30 0 6 3 -1 5 -18 5 -16 0 -22 -2 -12 -5z"/>
<path d="M618 203 c6 -2 18 -2 25 0 6 3 1 5 -13 5 -14 0 -19 -2 -12 -5z"/>
</g>
</svg>
